<svg xmlns="http://www.w3.org/2000/svg" width="16" height="16" viewBox="0 0 16 16"><g><g><path fill="#7347c1" d="M7.667.166a7.5 7.5 0 1 1-.002 15.002A7.5 7.5 0 0 1 7.667.166zm-3.021 13.73L1.344 4.849a6.922 6.922 0 0 0 3.302 9.046zm5.319.3a.615.615 0 0 1-.05-.095L7.789 8.273l-2.077 6.034a6.932 6.932 0 0 0 4.254-.111zm1.182-.547a6.916 6.916 0 0 0 3.44-5.982 6.89 6.89 0 0 0-.847-3.321c.03.22.048.457.048.712 0 .702-.133 1.491-.527 2.478zm-.058-9.864c0-.636.481-1.228 1.163-1.228.03 0 .059.003.088.006A6.894 6.894 0 0 0 7.667.745a6.915 6.915 0 0 0-5.784 3.12c.163.004.316.008.445.008.725 0 1.846-.089 1.846-.089.372-.02.417.527.044.571 0 0-.375.044-.793.066l2.521 7.497 1.515-4.542-1.078-2.955c-.373-.022-.727-.066-.727-.066-.372-.021-.329-.591.045-.57 0 0 1.142.088 1.822.088.724 0 1.846-.089 1.846-.089.371-.02.416.527.043.571 0 0-.374.044-.792.066l2.502 7.44.69-2.306c.351-.9.527-1.645.527-2.238 0-.856-.308-1.448-.57-1.91-.351-.569-.68-1.051-.68-1.622z"/></g></g></svg>